<?xml version="1.0" encoding="UTF-8"?>
<svg width="1024px" height="500px" viewBox="0 0 1024 500" xmlns="http://www.w3.org/2000/svg" xmlns:xlink="http://www.w3.org/1999/xlink" version="1.1">
 <!-- Generated by Pixelmator Pro 1.5.5 -->
 <g id="logo-funbooker">
  <g id="group">
   <path id="Tracé" d="M423.408 283.023 C422.426 289.04 423.777 291.619 427.829 291.619 429.671 291.619 431.267 291.127 432.864 290.636 432.864 297.267 424.145 301.934 417.637 301.934 409.286 301.934 403.515 296.899 404.62 285.847 397.989 296.285 386.569 301.934 376.868 301.934 363.114 301.934 355.378 292.969 355.378 280.69 355.378 267.182 363.606 250.481 363.606 240.535 363.606 236.974 361.764 235.377 358.816 235.377 356.974 235.377 355.378 235.868 353.782 236.36 353.782 225.676 363.36 225.062 369.009 225.062 376.745 225.062 382.885 229.483 382.885 238.324 382.885 249.867 374.657 262.884 374.657 275.532 374.657 282.532 378.096 286.829 384.972 286.829 393.323 286.829 405.357 278.602 408.795 257.972 L414.076 226.413 433.232 226.413 Z" fill="#04bfbf" fill-opacity="1" stroke="none"/>
   <path id="Tracé-1" d="M508.139 301.934 C500.648 301.934 494.262 297.513 494.262 288.672 494.262 277.128 501.139 264.112 501.139 251.464 501.139 244.464 497.701 240.166 490.824 240.166 482.474 240.166 470.563 248.394 467.001 269.024 L461.475 300.583 442.442 300.583 452.388 243.973 C453.371 237.956 451.897 235.377 447.968 235.377 446.126 235.377 444.407 235.868 442.933 236.36 442.933 227.15 451.652 225.062 458.16 225.062 466.51 225.062 472.282 230.097 471.054 241.149 477.685 230.834 489.228 225.062 499.174 225.062 512.682 225.062 520.418 234.026 520.418 246.306 520.418 259.814 513.542 276.514 513.542 286.461 513.542 290.022 515.384 291.619 518.331 291.619 520.173 291.619 521.892 291.127 523.366 290.636 523.366 298.004 514.647 301.934 508.139 301.934 Z" fill="#04bfbf" fill-opacity="1" stroke="none"/>
   <path id="Tracé-2" d="M649.602 303.284 C625.042 303.284 610.798 283.023 614.605 261.288 618.411 239.184 636.954 223.711 658.321 223.711 683.249 223.711 697.125 243.973 693.318 265.708 689.634 287.812 671.091 303.284 649.602 303.284 Z M657.707 237.342 C646.532 237.342 636.463 246.061 633.515 261.902 630.2 279.707 638.55 289.531 650.462 289.531 661.268 289.531 671.951 280.567 674.653 264.972 677.723 247.166 669.495 237.342 657.707 237.342 Z" fill="#2a3944" fill-opacity="1" stroke="none"/>
   <path id="Tracé-3" d="M735.929 303.284 C711.369 303.284 697.125 283.023 700.931 261.288 704.738 239.184 723.281 223.711 744.647 223.711 769.576 223.711 783.452 243.973 779.645 265.708 775.961 287.812 757.418 303.284 735.929 303.284 Z M744.033 237.342 C732.859 237.342 722.79 246.061 719.842 261.902 716.527 279.707 724.877 289.531 736.788 289.531 747.595 289.531 758.278 280.567 760.98 264.972 764.05 247.166 755.822 237.342 744.033 237.342 Z" fill="#2a3944" fill-opacity="1" stroke="none"/>
   <path id="Tracé-4" d="M829.01 259.323 C831.589 261.042 834.044 265.463 835.886 270.006 840.921 282.041 843.254 290.391 850.499 290.391 854.674 290.391 857.13 289.163 859.586 287.443 859.586 297.881 849.64 301.811 842.886 301.811 828.519 301.811 823.361 290.145 818.572 274.55 816.116 267.059 814.274 265.586 811.572 265.586 808.625 265.586 807.274 267.427 806.538 271.48 L801.38 300.46 782.347 300.46 801.012 194.977 820.168 194.977 808.748 258.709 846.201 226.29 867.691 226.29 Z" fill="#2a3944" fill-opacity="1" stroke="none"/>
   <path id="Tracé-5" d="M879.725 273.199 C881.322 284.865 888.812 288.672 897.408 289.163 905.758 289.654 913.495 286.707 920.371 280.813 920.371 296.408 906.25 302.548 893.11 302.548 870.27 302.548 858.236 282.655 861.428 262.761 864.99 239.921 884.76 224.325 905.39 224.325 918.898 224.325 928.722 231.693 927.371 242.868 925.897 254.165 913.249 268.287 879.725 273.199 Z M902.688 237.219 C893.233 237.219 882.672 245.569 879.48 263.621 897.04 260.919 908.951 251.832 910.179 245.078 911.039 241.64 908.583 237.219 902.688 237.219 Z" fill="#2a3944" fill-opacity="1" stroke="none"/>
   <path id="Tracé-6" d="M988.033 254.902 C986.191 254.902 984.226 254.411 983.612 254.042 984.349 252.692 985.823 250.113 985.823 247.166 985.823 243.359 983.121 240.289 978.455 240.289 971.824 240.289 962.614 247.657 959.053 268.41 L953.404 300.46 934.37 300.46 944.317 243.85 C945.299 237.833 943.826 235.254 939.896 235.254 938.054 235.254 936.335 235.746 934.861 236.237 934.861 227.272 943.58 224.939 950.089 224.939 958.439 224.939 963.964 230.097 963.351 240.78 968.876 230.711 977.595 224.939 985.945 224.939 996.752 224.939 1002.892 231.448 1002.892 239.675 1002.892 245.815 997.611 254.902 988.033 254.902 Z" fill="#2a3944" fill-opacity="1" stroke="none"/>
   <path id="Tracé-7" d="M560.451 302.057 C538.961 302.057 528.4 286.952 531.839 267.427 L544.733 194.977 563.889 194.977 557.012 233.29 C561.801 227.764 570.397 223.466 579.361 223.466 600.606 223.466 609.815 242.377 606.254 263.744 602.57 285.97 583.291 302.057 560.451 302.057 Z M572.73 237.219 C564.135 237.219 555.047 245.447 552.714 258.095 L550.627 270.006 C548.417 283.146 554.556 288.917 562.661 288.917 574.695 288.917 584.151 278.111 586.975 263.13 589.799 248.148 585.133 237.219 572.73 237.219 Z" fill="#2a3944" fill-opacity="1" stroke="none"/>
   <path id="Tracé-8" d="M312.522 177.417 L290.786 300.583 315.837 300.583 324.433 245.078 C340.888 242.008 347.028 232.307 347.887 226.536 L327.257 226.536 326.889 226.536 331.187 195.099 362.869 195.099 C376.131 195.099 384.236 177.417 384.236 177.417 Z" fill="#04bfbf" fill-opacity="1" stroke="none"/>
  </g>
  <g id="group-1">
   <path id="Tracé-9" d="M62.382 308.319 L78.837 205.537 C87.187 143.524 141.832 117.86 186.04 134.683 169.216 123.508 148.955 117 127.22 117 68.277 117 20.508 164.768 20.508 223.711 20.508 258.218 36.963 288.917 62.382 308.319 Z" fill="#04bfbf" fill-opacity="1" stroke="none"/>
   <path id="Tracé-10" d="M192.057 138.981 C156.814 136.402 135.447 164.277 131.64 190.188 130.658 196.819 128.202 214.256 125.132 236.605 L176.216 236.605 C165.041 257.726 144.166 273.076 119.483 276.637 117.15 293.829 114.571 311.88 112.238 329.195 117.15 329.932 122.062 330.177 127.097 330.177 186.04 330.177 233.808 282.409 233.808 223.466 233.808 189.205 217.476 158.506 192.057 138.981 Z M171.55 194.977 C167.497 194.977 163.936 192.889 161.849 189.574 165.041 191.047 168.848 189.942 170.567 186.872 172.409 183.679 171.304 179.504 168.111 177.662 166.146 176.557 163.691 176.557 161.849 177.417 163.813 174.224 167.497 172.013 171.55 172.013 177.812 172.013 182.97 177.171 182.97 183.434 182.97 189.819 177.812 194.977 171.55 194.977 Z" fill="#04bfbf" fill-opacity="1" stroke="none"/>
   <g id="group-2">
    <path id="Tracé-11" d="M62.382 308.319 C61.891 307.951 61.891 307.951 62.382 308.319 Z" fill="#ffffff" fill-opacity="1" stroke="none"/>
    <path id="Tracé-12" d="M127.22 330.3 C126.114 330.3 124.886 330.3 123.781 330.177 124.886 330.3 125.992 330.3 127.22 330.3 Z" fill="#ffffff" fill-opacity="1" stroke="none"/>
   </g>
  </g>
 </g>
</svg>
